<svg width="335" height="267" viewBox="0 0 335 267" fill="none" xmlns="http://www.w3.org/2000/svg">
<g clip-path="url(#clip0_163_18)">
<path d="M332.932 0.729906C328.753 3.42627 324.556 6.01386 320.342 8.49268C320.037 8.67301 319.732 8.85334 319.427 9.02938C314.186 12.095 308.923 14.986 303.64 17.7024C303.378 17.8398 303.116 17.9729 302.854 18.106C294.039 22.6142 285.192 26.6345 276.314 30.1666C276.014 30.2868 275.713 30.4071 275.412 30.523C269.918 32.6869 264.421 34.6591 258.921 36.4395C258.624 36.534 258.324 36.6327 258.027 36.7229C257.688 36.8345 257.348 36.9419 257.009 37.0492C247.731 39.9771 238.299 42.3923 228.756 44.2839C228.404 44.3526 228.056 44.4213 227.708 44.49C221.217 45.7437 214.706 46.7455 208.175 47.4955C207.879 47.5341 207.586 47.5685 207.29 47.5985C198.01 48.6359 188.679 49.1562 179.342 49.1571C157.322 49.1571 134.829 46.2461 112.324 40.4927C112.001 40.4111 111.679 40.3295 111.357 40.2393C107.559 39.2604 103.76 38.197 99.9602 37.0492C97.5762 36.3279 95.1848 35.5737 92.7862 34.7865C92.4984 34.6921 92.2106 34.5976 91.9229 34.4988C81.7246 31.1198 71.4563 27.1411 61.1179 22.5627C60.8043 22.4253 60.4907 22.2836 60.1728 22.1419C53.9483 19.3683 47.7094 16.38 41.4562 13.177C41.1898 13.0439 40.9235 12.9065 40.6572 12.7648C33.406 9.03796 26.1505 5.0292 18.8906 0.738488L19.3286 0C26.842 4.43955 34.341 8.5714 41.8256 12.3955L41.8472 12.4041C47.8871 15.4955 53.9169 18.3836 59.9366 21.0686C70.3738 25.7422 81.0409 29.885 91.897 33.4813C92.6144 33.7174 93.3276 33.9536 94.0449 34.1768C100.102 36.1347 106.149 37.8822 112.186 39.4193C112.513 39.5051 112.835 39.5867 113.161 39.6683C144.774 47.6286 176.014 49.9285 206.882 46.5681C207.178 46.5423 207.47 46.508 207.767 46.4693C213.914 45.7866 220.043 44.8735 226.153 43.73C227.205 43.5325 228.258 43.3307 229.31 43.116C238.772 41.227 248.123 38.8233 257.323 35.9157C257.619 35.8213 257.92 35.7268 258.216 35.6281C264.003 33.7861 269.77 31.7352 275.52 29.4754C275.82 29.3551 276.121 29.2392 276.422 29.119C285.078 25.6884 293.691 21.7898 302.261 17.4233C302.523 17.2945 302.785 17.1614 303.047 17.0197C308.563 14.1989 314.058 11.1819 319.534 7.96889C319.843 7.79286 320.148 7.61252 320.453 7.4279C324.47 5.05785 328.475 2.58475 332.469 0.00860863L332.932 0.729906Z" fill="#F2F2F2"/>
<path d="M59.9365 21.0686L41.8471 12.4041L41.8255 12.3956L40.8203 11.9147L40.6572 12.7648L35.6826 38.6164L61.1179 22.5627L61.9556 22.0346L59.9365 21.0686ZM36.9026 36.8303L41.4561 13.177V13.1684L60.1813 22.1377L60.1727 22.142L36.9026 36.8303Z" fill="#F2F2F2"/>
<path d="M112.186 39.4192L111.357 40.2393L93.3661 57.9674L92.7861 34.7864L92.7647 33.8762L94.0449 34.1768C93.3275 33.9535 92.6143 33.7173 91.897 33.4812L91.9228 34.4988L92.5585 59.9682L112.323 40.4926L113.161 39.6682C112.835 39.5867 112.512 39.5051 112.186 39.4192Z" fill="#F2F2F2"/>
<path d="M226.153 43.7301L228.18 43.4853L227.708 44.49L216.418 68.3709L208.175 47.4955L207.767 46.4694C207.47 46.508 207.178 46.5424 206.882 46.5681L207.29 47.5986L216.35 70.5305L228.756 44.2839L229.31 43.1161C228.258 43.3308 227.205 43.5326 226.153 43.7301Z" fill="#F2F2F2"/>
<path d="M275.52 29.4754L275.412 30.523L273.157 52.7766L258.921 36.4396L258.216 35.6281C257.92 35.7268 257.619 35.8213 257.323 35.9157L258.027 36.7229L273.81 54.8375L276.314 30.1667L276.422 29.119C276.121 29.2392 275.82 29.3552 275.52 29.4754Z" fill="#F2F2F2"/>
<path d="M319.534 7.96888L319.427 9.02939L316.935 33.0304L303.64 17.7024L303.047 17.0197C302.785 17.1614 302.523 17.2945 302.261 17.4233L302.854 18.106L317.584 35.0913L320.342 8.49267L320.453 7.42786C320.148 7.61251 319.843 7.79284 319.534 7.96888Z" fill="#F2F2F2"/>
<path d="M207.626 159.768C202.354 155.315 199.152 148.282 199.992 141.434C200.831 134.587 206.033 128.292 212.78 126.838C219.527 125.384 227.218 129.409 229.268 135.997C230.395 123.296 231.695 110.063 238.451 99.2478C244.568 89.4544 255.163 82.4469 266.646 81.1933C278.129 79.9396 290.219 84.6745 297.38 93.7331C304.542 102.792 306.295 115.961 301.28 126.361C297.585 134.023 290.778 139.724 283.645 144.363C260.598 159.226 232.956 165.27 205.805 161.383L207.626 159.768Z" fill="#F2F2F2"/>
<path d="M286.025 84.937C276.55 92.6504 267.858 101.277 260.075 110.693C247.893 125.377 238.036 141.842 230.846 159.512C230.32 160.801 232.414 161.362 232.934 160.087C244.698 131.37 263.478 106.058 287.557 86.4677C288.638 85.5877 287.097 84.0642 286.025 84.937Z" fill="white"/>
<path d="M98.3344 230.938C97.2605 231.097 96.1837 231.239 95.104 231.363C68.9649 234.336 42.6022 228.172 20.495 213.919C13.364 209.281 6.55521 203.58 2.86102 195.916C-2.15651 185.517 -0.399616 172.348 6.7616 163.289C9.36872 160.018 12.5818 157.281 16.2251 155.225C16.7665 154.912 17.3162 154.62 17.8746 154.341C23.9362 151.294 30.7446 150.046 37.4935 150.747C48.9759 152.001 59.5737 159.012 65.6908 168.802C72.4438 179.617 73.7453 192.85 74.8709 205.55C74.9611 205.258 75.0643 204.971 75.1759 204.692C75.4137 204.093 75.701 203.516 76.035 202.966V224.064C76.0371 225.772 76.7167 227.409 77.9246 228.616C79.1326 229.823 80.7704 230.503 82.4787 230.505H97.8446L98.3344 230.938Z" fill="#F2F2F2"/>
<path d="M18.115 154.493C27.5897 162.206 36.2818 170.833 44.0655 180.248C51.8505 189.654 58.7043 199.793 64.5306 210.521C67.7873 216.539 70.7129 222.731 73.2942 229.068C73.8206 230.357 71.7262 230.918 71.2058 229.643C66.6336 218.471 60.9768 207.774 54.3168 197.705C47.689 187.672 40.1032 178.306 31.6659 169.737C26.8937 164.893 21.8586 160.315 16.5835 156.023C15.5023 155.143 17.0427 153.62 18.115 154.493H18.115Z" fill="white"/>
<path d="M224.024 182.417H112.549V170.18C112.549 169.098 112.119 168.061 111.354 167.296C110.589 166.531 109.551 166.101 108.468 166.101C107.386 166.101 106.348 166.531 105.583 167.296C104.817 168.061 104.387 169.098 104.387 170.18V186.496C104.39 187.576 104.821 188.612 105.586 189.376C106.351 190.141 107.387 190.571 108.468 190.574H224.024C225.107 190.574 226.145 190.145 226.91 189.38C227.675 188.615 228.105 187.577 228.105 186.496C228.105 185.414 227.675 184.376 226.91 183.611C226.145 182.846 225.107 182.417 224.024 182.417Z" fill="#F2F2F2"/>
<path d="M334.489 266.974H17.3347C17.1993 266.973 17.0696 266.919 16.974 266.823C16.8784 266.728 16.8247 266.598 16.8247 266.462C16.8247 266.327 16.8784 266.197 16.974 266.101C17.0696 266.006 17.1993 265.952 17.3347 265.951H334.489C334.624 265.952 334.754 266.006 334.849 266.101C334.945 266.197 334.999 266.327 334.999 266.462C334.999 266.598 334.945 266.728 334.849 266.823C334.754 266.919 334.624 266.973 334.489 266.974Z" fill="#3F3D56"/>
<path d="M296.837 230.505H54.9854C53.0494 230.507 51.1935 231.277 49.8246 232.646C48.4557 234.014 47.6854 235.869 47.6826 237.804V259.701C47.6854 261.636 48.4557 263.491 49.8246 264.859C51.1935 266.227 53.0494 266.997 54.9854 267H296.837C298.773 266.997 300.629 266.227 301.998 264.859C303.367 263.491 304.137 261.636 304.14 259.701V237.804C304.137 235.869 303.367 234.014 301.998 232.646C300.629 231.277 298.773 230.507 296.837 230.505ZM303.281 259.701C303.279 261.408 302.599 263.045 301.391 264.253C300.183 265.46 298.545 266.139 296.837 266.141H54.9854C53.2771 266.139 51.6393 265.46 50.4314 264.253C49.2234 263.045 48.5438 261.408 48.5418 259.701V237.804C48.5438 236.096 49.2234 234.459 50.4314 233.252C51.6393 232.045 53.2771 231.365 54.9854 231.363H296.837C298.545 231.365 300.183 232.045 301.391 233.252C302.599 234.459 303.279 236.096 303.281 237.804V259.701Z" fill="#3F3D56"/>
<path d="M285.024 253.69H61.4295V241.453C61.4295 240.371 60.9996 239.334 60.2342 238.569C59.4689 237.804 58.4309 237.374 57.3486 237.374C56.2662 237.374 55.2282 237.804 54.4629 238.569C53.6975 239.334 53.2676 240.371 53.2676 241.453V257.769C53.2707 258.85 53.7017 259.885 54.4664 260.65C55.231 261.414 56.2672 261.845 57.3486 261.848H285.024C286.107 261.848 287.145 261.418 287.91 260.653C288.675 259.888 289.105 258.851 289.105 257.769C289.105 256.687 288.675 255.65 287.91 254.885C287.145 254.12 286.107 253.69 285.024 253.69Z" fill="#F2F2F2"/>
<path d="M245.073 215.907H89.3519V203.67C89.3519 202.588 88.9219 201.551 88.1566 200.786C87.3913 200.021 86.3533 199.591 85.2709 199.591C84.1886 199.591 83.1506 200.021 82.3852 200.786C81.6199 201.551 81.1899 202.588 81.1899 203.67V219.985C81.1931 221.066 81.6241 222.102 82.3887 222.866C83.1534 223.63 84.1895 224.061 85.2709 224.064H245.073C246.156 224.064 247.194 223.635 247.959 222.87C248.724 222.105 249.154 221.067 249.154 219.985C249.154 218.904 248.724 217.866 247.959 217.101C247.194 216.336 246.156 215.907 245.073 215.907Z" fill="#F2F2F2"/>
<path d="M260.289 244.274C225.922 235.687 152.894 247.709 151.606 247.709C150.347 247.709 70.4543 259.581 73.0876 231.363C73.1134 231.08 73.1478 230.797 73.1907 230.505H287.648C287.7 230.758 287.751 231.046 287.799 231.363C288.628 236.958 288.22 251.255 260.289 244.274Z" fill="#E1A7C3"/>
<path d="M269.774 194.868H82.4781C80.5421 194.871 78.6862 195.641 77.3173 197.009C75.9483 198.377 75.178 200.232 75.1753 202.167V224.064C75.1797 225.999 75.9506 227.853 77.3192 229.221C78.6877 230.589 80.5426 231.359 82.4781 231.363H269.774C271.708 231.356 273.561 230.585 274.929 229.218C276.297 227.85 277.069 225.998 277.076 224.064V202.167C277.074 200.232 276.303 198.377 274.934 197.009C273.565 195.641 271.709 194.871 269.774 194.868ZM276.217 224.064C276.214 225.771 275.534 227.407 274.326 228.614C273.118 229.821 271.481 230.501 269.774 230.505H82.4781C80.7702 230.501 79.1332 229.822 77.9255 228.615C76.7178 227.408 76.0378 225.771 76.0344 224.064V202.167C76.0365 200.46 76.7161 198.823 77.924 197.615C79.132 196.408 80.7698 195.729 82.4781 195.727H269.774C271.482 195.729 273.12 196.408 274.328 197.615C275.536 198.823 276.215 200.46 276.217 202.167V224.064Z" fill="#3F3D56"/>
<path d="M245.945 206.933C215.908 199.428 152.077 209.936 150.951 209.936C149.85 209.936 80.0197 220.312 82.3213 195.649C82.3438 195.401 82.3739 195.153 82.4114 194.898H269.859C269.904 195.119 269.95 195.371 269.991 195.649C270.715 200.539 270.359 213.035 245.945 206.933Z" fill="#E1A7C3"/>
<path d="M246.577 195.297H105.246C103.31 195.295 101.454 194.525 100.085 193.157C98.7156 191.789 97.9455 189.933 97.9434 187.998V166.101C97.9455 164.166 98.7156 162.311 100.085 160.942C101.454 159.574 103.31 158.804 105.246 158.802H246.577C248.513 158.804 250.369 159.574 251.738 160.942C253.107 162.311 253.877 164.166 253.88 166.101V187.998C253.877 189.933 253.107 191.789 251.738 193.157C250.369 194.525 248.513 195.295 246.577 195.297ZM105.246 159.661C103.538 159.663 101.9 160.342 100.692 161.549C99.484 162.757 98.8044 164.394 98.8025 166.101V187.998C98.8044 189.706 99.484 191.343 100.692 192.55C101.9 193.758 103.538 194.437 105.246 194.439H246.577C248.285 194.437 249.923 193.758 251.131 192.55C252.339 191.343 253.019 189.706 253.021 187.998V166.101C253.019 164.394 252.339 162.757 251.131 161.549C249.923 160.342 248.285 159.663 246.577 159.661H105.246Z" fill="#3F3D56"/>
<path d="M229.686 168.077C206.652 162.322 157.706 170.379 156.843 170.379C155.999 170.379 102.452 178.336 104.217 159.424C104.234 159.234 104.257 159.044 104.286 158.849H248.023C248.058 159.018 248.093 159.211 248.124 159.424C248.68 163.174 248.406 172.756 229.686 168.077Z" fill="#E1A7C3"/>
<path d="M176.091 160.979C184.158 160.979 190.697 160.402 190.697 159.691C190.697 158.979 184.158 158.403 176.091 158.403C168.025 158.403 161.486 158.979 161.486 159.691C161.486 160.402 168.025 160.979 176.091 160.979Z" fill="#3F3D56"/>
<path d="M175.267 111.881C175.255 112.118 175.263 112.356 175.288 112.592L158.97 126.28L154.103 124.519L150.484 131.512L161.124 136.574L178.964 116.565C179.865 116.728 180.794 116.613 181.628 116.236C182.462 115.859 183.162 115.237 183.633 114.452C184.105 113.668 184.327 112.759 184.269 111.845C184.211 110.932 183.876 110.058 183.309 109.34C182.742 108.621 181.969 108.092 181.094 107.823C180.219 107.554 179.283 107.558 178.41 107.834C177.537 108.11 176.769 108.645 176.207 109.367C175.646 110.09 175.318 110.967 175.267 111.881V111.881Z" fill="#FFB8B8"/>
<path d="M153.381 134.867L137.623 129.182C136.906 128.924 136.247 128.527 135.683 128.014C135.12 127.502 134.663 126.883 134.339 126.194C134.014 125.505 133.829 124.758 133.794 123.997C133.758 123.237 133.873 122.476 134.132 121.76C134.391 121.044 134.788 120.385 135.302 119.823C135.815 119.26 136.434 118.804 137.124 118.48C137.814 118.157 138.561 117.972 139.322 117.938C140.083 117.903 140.844 118.018 141.56 118.278L157.319 123.963C157.557 124.049 157.777 124.181 157.965 124.352C158.152 124.523 158.304 124.729 158.412 124.959C158.52 125.188 158.582 125.437 158.593 125.69C158.605 125.944 158.567 126.197 158.481 126.436L155.855 133.705C155.681 134.187 155.322 134.579 154.858 134.797C154.394 135.015 153.863 135.04 153.381 134.867Z" fill="#2F2E41"/>
<path d="M174.838 101.268C174.724 101.268 174.615 101.223 174.534 101.142C174.453 101.062 174.408 100.953 174.408 100.839V84.9526C174.408 84.8387 174.453 84.7295 174.534 84.649C174.615 84.5684 174.724 84.5232 174.838 84.5232C174.952 84.5232 175.061 84.5684 175.142 84.649C175.222 84.7295 175.267 84.8387 175.267 84.9526V100.839C175.267 100.953 175.222 101.062 175.142 101.142C175.061 101.223 174.952 101.268 174.838 101.268Z" fill="#3F3D56"/>
<path d="M182.14 81.5177C186.138 85.2299 181.153 93.1103 175.697 93.1103C173.076 93.1103 170.563 92.0699 168.71 90.218C166.857 88.366 165.816 85.8542 165.816 83.2351C165.816 77.7812 176.495 53.7225 174.408 58.7618C173.742 60.3703 177.562 77.2664 182.14 81.5177Z" fill="#FF6584"/>
<path d="M178.704 143.989H171.401C170.888 143.989 170.397 143.785 170.035 143.423C169.672 143.06 169.468 142.569 169.468 142.057V98.2628C169.468 97.7505 169.672 97.2594 170.035 96.8972C170.397 96.535 170.888 96.3312 171.401 96.3307H178.704C179.216 96.3312 179.708 96.535 180.07 96.8972C180.432 97.2594 180.636 97.7505 180.637 98.2628V142.057C180.636 142.569 180.432 143.06 180.07 143.423C179.708 143.785 179.216 143.989 178.704 143.989Z" fill="#CCCCCC"/>
<path d="M141.84 190.25H147.106L149.612 169.947L141.839 169.947L141.84 190.25Z" fill="#FFB8B8"/>
<path d="M157.263 195.137L140.711 195.138L140.711 188.746L150.868 188.746C152.564 188.746 154.191 189.419 155.39 190.618C156.589 191.816 157.263 193.442 157.263 195.137Z" fill="#2F2E41"/>
<path d="M128.824 183.451L133.132 186.478L146.866 171.31L140.508 166.842L128.824 183.451Z" fill="#FFB8B8"/>
<path d="M138.628 196.316L125.088 186.8L128.766 181.572L137.075 187.411C138.463 188.386 139.406 189.871 139.697 191.542C139.988 193.212 139.604 194.929 138.628 196.316L138.628 196.316Z" fill="#2F2E41"/>
<path d="M153.364 153.676C153.364 153.676 166.507 152.126 164.148 160.65C161.789 169.175 135.503 176.537 135.503 176.537L153.364 153.676Z" fill="#FFB8B8"/>
<path d="M144.318 110.181C150.145 110.181 154.869 105.46 154.869 99.636C154.869 93.8119 150.145 89.0906 144.318 89.0906C138.491 89.0906 133.767 93.8119 133.767 99.636C133.767 105.46 138.491 110.181 144.318 110.181Z" fill="#FFB8B8"/>
<path d="M110.67 174.791C104.667 167.804 102.566 157.081 112.14 148.162C114.505 146.013 117.182 144.236 120.08 142.891L127.797 121.323C128.598 119.07 130.068 117.116 132.009 115.72C133.951 114.324 136.272 113.553 138.664 113.51C140.986 113.41 143.281 114.031 145.236 115.287C147.191 116.543 148.708 118.374 149.58 120.527C150.523 122.717 150.63 125.177 149.883 127.441C147.586 134.591 144.57 141.489 140.88 148.03L141.279 151.221L160.783 152.953L160.601 153.249C160.506 153.403 150.961 167.94 138.749 177.589C134.574 180.888 130.256 182.255 126.181 182.254C120.001 182.254 114.381 179.11 110.67 174.791Z" fill="#2F2E41"/>
<path d="M175.796 126.607C175.684 126.817 175.59 127.036 175.513 127.26L154.92 132.718L151.264 129.057L145.015 133.85L152.493 142.951L177.15 132.418C177.896 132.949 178.786 133.24 179.702 133.252C180.617 133.265 181.515 132.999 182.275 132.489C183.036 131.98 183.623 131.251 183.959 130.4C184.295 129.548 184.363 128.615 184.156 127.724C183.948 126.833 183.474 126.026 182.796 125.41C182.118 124.795 181.269 124.401 180.362 124.28C179.454 124.158 178.531 124.316 177.716 124.732C176.9 125.148 176.23 125.802 175.796 126.607H175.796Z" fill="#FFB8B8"/>
<path d="M146.21 138.116L134.364 126.276C133.825 125.738 133.397 125.099 133.105 124.395C132.813 123.692 132.663 122.938 132.663 122.177C132.662 121.415 132.812 120.661 133.104 119.957C133.395 119.254 133.822 118.615 134.361 118.076C134.9 117.538 135.539 117.111 136.243 116.819C136.947 116.528 137.702 116.378 138.464 116.379C139.225 116.379 139.98 116.529 140.683 116.821C141.387 117.112 142.027 117.54 142.565 118.079L154.411 129.919C154.591 130.098 154.733 130.311 154.83 130.546C154.928 130.78 154.978 131.031 154.978 131.285C154.978 131.539 154.928 131.79 154.83 132.024C154.733 132.259 154.591 132.472 154.411 132.651L148.944 138.116C148.581 138.478 148.089 138.681 147.577 138.681C147.064 138.681 146.573 138.478 146.21 138.116Z" fill="#2F2E41"/>
<path d="M108.83 102.944C110.696 100.721 111.497 97.8134 112.141 94.9834C113.16 90.5057 113.949 85.8756 116.213 81.8798C118.477 77.884 122.637 74.5731 127.225 74.8251C131.786 75.0757 135.474 78.7436 137.431 82.9169C137.905 82.7329 138.413 82.6505 138.921 82.675C139.429 82.6994 139.926 82.8303 140.38 83.059C141.791 83.8312 142.318 86.026 141.144 87.1247C142.379 86.5369 143.724 86.2155 145.092 86.1814C146.459 86.1473 147.818 86.4014 149.081 86.9269C150.705 87.6179 152.107 88.7432 153.132 90.179C154.158 91.6149 154.767 93.3055 154.893 95.0651C154.942 95.7793 154.844 96.4959 154.605 97.1706C154.366 97.8454 153.99 98.4638 153.502 98.9876C151.478 101.071 148.615 100.352 146.069 99.8214C143.664 99.3203 140.736 99.1849 139.381 101.475C138.847 102.429 138.698 103.551 138.963 104.611C139.482 106.897 141.175 108.49 142.818 110.013L143.087 110.512C137.287 111.643 130.953 107.684 129.431 101.976C127.91 96.2688 131.433 89.6845 137.027 87.7805C136.654 87.7921 136.286 87.7041 135.959 87.5256C135.632 87.3472 135.359 87.0847 135.167 86.7653C134.976 86.446 134.873 86.0813 134.87 85.709C134.867 85.3368 134.963 84.9704 135.149 84.6477C133.538 83.8429 131.847 83.2658 130.073 83.382C127.184 83.5715 124.683 85.6274 123.179 88.1008C121.675 90.5743 120.994 93.4452 120.305 96.2562C119.615 99.0672 118.868 101.932 117.26 104.339C116.147 106.006 114.658 107.39 112.915 108.381C111.171 109.371 109.219 109.94 107.216 110.043C105.213 110.146 103.214 109.779 101.378 108.972C99.5417 108.165 97.9196 106.941 96.6411 105.396C98.6616 106.375 100.947 106.666 103.149 106.223C105.35 105.78 107.346 104.629 108.83 102.944Z" fill="#2F2E41"/>
</g>
<defs>
<clipPath id="clip0_163_18">
<rect width="335" height="267" fill="white"/>
</clipPath>
</defs>
</svg>
